<svg width="226" height="191" viewBox="0 0 226 191" fill="none" xmlns="http://www.w3.org/2000/svg">
<path fill-rule="evenodd" clip-rule="evenodd" d="M129.44 152.702C131.876 153.203 137.982 149.308 141.895 148.074C152.962 144.583 154.065 147.717 163.634 125.057C168.5 113.535 180.631 97.9995 195.57 95.9638C204.928 94.6887 224.991 103.266 222.854 110.584C218.804 124.454 202.925 104.364 185.758 125.126C170.495 143.585 173.771 163.658 146.608 168.607C130.747 171.496 126.874 170.024 124.138 169.236L129.44 152.702Z" fill="#ABA193"/>
<path fill-rule="evenodd" clip-rule="evenodd" d="M35.3257 112.98C25.0131 119.504 22.555 121.915 21.2064 127.735C20.1123 132.458 20.5412 150.536 21.3877 158.743C22.6882 171.353 27.7723 176.375 33.2555 179.935C37.8856 182.941 48.9333 182.676 54.4922 182.046C58.0927 181.637 84.1672 180.68 84.9012 180.664C111.496 180.098 116.884 180.155 120.503 180.349C126.088 180.648 137.132 180.255 141.576 176.979C146.837 173.1 152.498 167.839 153.046 155.174C153.403 146.93 153.931 137.239 152.558 132.59C150.866 126.86 144.246 119.141 133.973 112.507C127.715 108.466 109.562 96.6472 83.5174 96.6523C60.6431 96.6561 40.8847 109.465 35.3257 112.98Z" fill="#AE9F8D"/>
<path fill-rule="evenodd" clip-rule="evenodd" d="M150.745 66.3246C151.232 62.6531 157.542 48.316 159.042 43.1451C165.993 19.1706 164.924 6.22414 164.924 6.22414C164.924 6.22414 150.651 5.63901 136.233 10.502C131.645 12.0497 116.37 21.0559 115.038 22.7935L150.745 66.3246Z" fill="#AC9A83"/>
<path fill-rule="evenodd" clip-rule="evenodd" d="M52.5128 25.7586C51.5317 25.7306 41.7106 18.0323 28.0977 14.2899C8.4046 8.87573 0.410886 9.35661 0.410886 9.35661C0.410886 9.35661 0.67244 23.6021 6.34537 42.4733C10.7999 57.29 17.7874 69.6006 17.8794 70.2945L52.5128 25.7586Z" fill="#AC9A83"/>
<path fill-rule="evenodd" clip-rule="evenodd" d="M83.0901 119.678C90.4379 119.1 101.799 117.866 106.325 118.709C113.284 120.004 117.264 123.19 129.705 124.983C132.541 125.392 135.815 125.728 139.664 125.953C147.515 126.413 149.399 124.355 157.611 108.132C160.491 102.443 164.367 80.8707 156.788 63.8153C151.251 51.353 148.212 42.5503 126.906 28.1422C104.695 13.1224 80.0276 16.9522 76.2857 17.1191C69.0327 17.443 48.578 22.3589 37.2898 33.2459C23.1816 46.853 12.9917 65.5979 9.44557 78.7652C4.59231 96.7864 11.3772 114.78 14.8672 120.152C22.6201 132.087 23.461 132.153 32.2159 130.88C51.0552 128.14 54.041 125.067 62.2382 122.177C66.5797 120.645 76.1126 120.227 83.0901 119.678Z" fill="#BCA88E"/>
<path d="M99.484 111.993C99.484 111.993 85.4816 121.09 87.0436 88.8366C85.4569 121.19 73.9565 112.394 69.5194 113.116" stroke="black" stroke-width="0.989732" stroke-miterlimit="1.5" stroke-linecap="round" stroke-linejoin="round"/>
<path fill-rule="evenodd" clip-rule="evenodd" d="M86.5927 76.8064C84.2341 76.7147 77.0355 76.3243 77.8467 80.4079C78.2051 82.2092 81.2954 89.8175 86.3428 90.274C89.3864 90.5493 95.9957 83.342 96.065 80.4479C96.1386 77.3459 91.7777 77.0083 86.5927 76.8064Z" fill="black" stroke="black" stroke-width="0.994677" stroke-miterlimit="1.5" stroke-linecap="round" stroke-linejoin="round"/>
<path fill-rule="evenodd" clip-rule="evenodd" d="M128.58 67.4022C128.891 63.6651 121.659 54.7277 113.342 57.3023C99.9013 61.4623 101.029 79.3577 115.289 84.5755C125.999 88.4943 135.689 73.2369 127.373 67.6484C127.373 67.6484 128.464 68.7986 128.58 67.4022Z" fill="white"/>
<path fill-rule="evenodd" clip-rule="evenodd" d="M54.5997 59.6792C50.812 60.2154 41.1457 64.7671 41.505 74.0857C42.0853 89.1439 58.971 91.164 67.2953 76.9209C73.5473 66.2232 61.7509 53.1605 54.5335 61.0089C54.5335 61.0089 57.1554 59.3174 54.5997 59.6792Z" fill="white"/>
<path d="M108.784 90.2126C114.633 89.5329 120.57 88.7039 126.419 88.332C133.425 87.8871 140.223 87.9933 147.23 87.5672C151.656 87.2978 156.153 86.8647 160.591 86.3056C160.651 86.2978 166.104 85.4312 165.063 85.5522" stroke="black" stroke-width="0.813276" stroke-miterlimit="1.5" stroke-linecap="round" stroke-linejoin="round"/>
<path d="M1.82812 94.5372C7.71648 94.5372 13.7097 94.3991 19.5624 94.7048C26.5733 95.0716 33.313 95.9617 40.3228 96.3474C44.7505 96.5906 49.2675 96.6795 53.7398 96.6364C53.8001 96.6355 59.3169 96.4042 58.2691 96.4042" stroke="black" stroke-width="0.813275" stroke-miterlimit="1.5" stroke-linecap="round" stroke-linejoin="round"/>
<path d="M1.97551 104.61C7.83354 104.013 13.7819 103.268 19.6354 102.979C26.6474 102.633 33.4427 102.836 40.4554 102.509C44.885 102.302 49.3877 101.933 53.8326 101.436C53.8925 101.429 59.3574 100.64 58.315 100.746" stroke="black" stroke-width="0.813275" stroke-miterlimit="1.5" stroke-linecap="round" stroke-linejoin="round"/>
<path d="M2.44109 83.0762C8.28264 83.8174 14.2456 84.4347 20.0133 85.4746C26.9223 86.7209 33.4964 88.4523 40.4019 89.7171C44.7638 90.5158 49.2337 91.1725 53.6759 91.6926C53.7358 91.6993 59.2379 92.1642 58.1984 92.0324" stroke="black" stroke-width="0.813276" stroke-miterlimit="1.5" stroke-linecap="round" stroke-linejoin="round"/>
<path d="M109.591 94.614C115.479 94.614 121.473 94.4759 127.325 94.7816C134.336 95.1484 141.076 96.0385 148.086 96.4241C152.514 96.6674 157.03 96.7563 161.503 96.7131C161.563 96.7123 167.08 96.481 166.032 96.481" stroke="black" stroke-width="0.813275" stroke-miterlimit="1.5" stroke-linecap="round" stroke-linejoin="round"/>
<path d="M109.547 99.6553C115.387 100.404 121.349 101.029 127.116 102.077C134.023 103.332 140.595 105.072 147.499 106.346C151.86 107.15 156.329 107.813 160.77 108.339C160.83 108.346 166.331 108.818 165.292 108.685" stroke="black" stroke-width="0.813275" stroke-miterlimit="1.5" stroke-linecap="round" stroke-linejoin="round"/>
<path fill-rule="evenodd" clip-rule="evenodd" d="M21.3563 156.691C21.3563 156.691 37.8191 155.307 46.3057 159.165C53.8688 162.603 59.3528 181.61 59.3528 181.61C59.3528 181.61 39.5913 185.035 30.9666 177.919C20.2981 169.117 21.3563 156.691 21.3563 156.691Z" fill="#808080"/>
<path fill-rule="evenodd" clip-rule="evenodd" d="M153.057 154.45C153.057 154.45 136.594 153.066 128.108 156.924C120.545 160.361 115.393 180.304 115.393 180.304C115.393 180.304 134.822 182.794 143.447 175.678C154.115 166.876 153.057 154.45 153.057 154.45Z" fill="#808080"/>
<path d="M57.6858 79.197C60.5302 79.197 62.8361 76.8911 62.8361 74.0468C62.8361 71.2024 60.5302 68.8966 57.6858 68.8966C54.8415 68.8966 52.5356 71.2024 52.5356 74.0468C52.5356 76.8911 54.8415 79.197 57.6858 79.197Z" fill="black"/>
<path d="M115.712 79.2093C118.559 79.2093 120.867 76.9009 120.867 74.0535C120.867 71.2061 118.559 68.8978 115.712 68.8978C112.864 68.8978 110.556 71.2061 110.556 74.0535C110.556 76.9009 112.864 79.2093 115.712 79.2093Z" fill="black"/>
</svg>
