<svg width="49" height="41" viewBox="0 0 49 41" fill="none" xmlns="http://www.w3.org/2000/svg">
<path fill-rule="evenodd" clip-rule="evenodd" d="M27.7856 32.7789C28.3084 32.8865 29.6191 32.0503 30.4591 31.7854C32.8348 31.0362 33.0714 31.7088 35.1256 26.8447C36.1701 24.3713 38.7742 21.0365 41.981 20.5996C43.9897 20.3258 48.2965 22.1669 47.8378 23.7379C46.9684 26.7153 43.5597 22.4027 39.8747 26.8594C36.5984 30.8218 37.3016 35.1308 31.4708 36.1931C28.0661 36.8133 27.2348 36.4972 26.6475 36.3281L27.7856 32.7789Z" fill="#ABA193"/>
<path fill-rule="evenodd" clip-rule="evenodd" d="M7.58302 24.2524C5.36932 25.6526 4.84165 26.1703 4.55217 27.4197C4.3173 28.4334 4.40938 32.314 4.59109 34.0758C4.87025 36.7826 5.96161 37.8607 7.13862 38.6248C8.13253 39.27 10.504 39.2133 11.6973 39.0779C12.4702 38.9901 18.0673 38.7847 18.2249 38.7814C23.9337 38.6599 25.0903 38.6721 25.867 38.7138C27.0661 38.7778 29.4368 38.6935 30.3907 37.9902C31.52 37.1576 32.7352 36.0282 32.8528 33.3096C32.9294 31.5401 33.0428 29.4598 32.748 28.4618C32.3848 27.2317 30.9637 25.5747 28.7587 24.1508C27.4152 23.2833 23.5185 20.7463 17.9278 20.7474C13.0176 20.7482 8.7763 23.4978 7.58302 24.2524Z" fill="#AE9F8D"/>
<path fill-rule="evenodd" clip-rule="evenodd" d="M32.3588 14.2372C32.4635 13.4491 33.8179 10.3715 34.1398 9.26152C35.632 4.11516 35.4025 1.33608 35.4025 1.33608C35.4025 1.33608 32.3388 1.21048 29.2438 2.25436C28.2589 2.58659 24.9801 4.51987 24.694 4.89286L32.3588 14.2372Z" fill="#AC9A83"/>
<path fill-rule="evenodd" clip-rule="evenodd" d="M11.2724 5.52934C11.0618 5.52332 8.95358 3.8708 6.03145 3.06746C1.80413 1.90526 0.088199 2.00849 0.088199 2.00849C0.088199 2.00849 0.144344 5.06642 1.36209 9.11731C2.31831 12.2978 3.81824 14.9404 3.83799 15.0894L11.2724 5.52934Z" fill="#AC9A83"/>
<path fill-rule="evenodd" clip-rule="evenodd" d="M17.8361 25.69C19.4134 25.5659 21.8521 25.3011 22.8237 25.4819C24.3175 25.76 25.1719 26.4439 27.8424 26.8289C28.4511 26.9165 29.154 26.9888 29.9803 27.0371C31.6656 27.1357 32.0699 26.694 33.8327 23.2116C34.4509 21.9904 35.2829 17.3597 33.6561 13.6986C32.4675 11.0234 31.815 9.13383 27.2416 6.04099C22.4739 2.81684 17.1787 3.63895 16.3755 3.67478C14.8185 3.7443 10.4277 4.79956 8.00461 7.13656C4.97616 10.0574 2.78879 14.0812 2.02758 16.9077C0.985777 20.7761 2.44221 24.6387 3.19138 25.7918C4.85562 28.3537 5.03613 28.3679 6.91545 28.0946C10.9595 27.5064 11.6004 26.8469 13.36 26.2264C14.292 25.8977 16.3383 25.8078 17.8361 25.69Z" fill="#BCA88E"/>
<path d="M21.3552 24.0404C21.3552 24.0404 18.3494 25.9931 18.6847 19.0696C18.3441 26.0147 15.8755 24.1266 14.923 24.2815" stroke="black" stroke-width="0.4" stroke-miterlimit="1.5" stroke-linecap="round" stroke-linejoin="round"/>
<path fill-rule="evenodd" clip-rule="evenodd" d="M18.588 16.4872C18.0817 16.4675 16.5364 16.3837 16.7106 17.2603C16.7875 17.647 17.4508 19.2802 18.5343 19.3782C19.1877 19.4373 20.6064 17.8902 20.6213 17.2689C20.6371 16.603 19.701 16.5306 18.588 16.4872Z" fill="black" stroke="black" stroke-width="0.994677" stroke-miterlimit="1.5" stroke-linecap="round" stroke-linejoin="round"/>
<path fill-rule="evenodd" clip-rule="evenodd" d="M27.601 14.4685C27.6678 13.6663 26.1152 11.7478 24.3299 12.3005C21.4448 13.1935 21.6869 17.0349 24.7479 18.155C27.0469 18.9962 29.127 15.721 27.3418 14.5214C27.3418 14.5214 27.5761 14.7683 27.601 14.4685Z" fill="white"/>
<path fill-rule="evenodd" clip-rule="evenodd" d="M11.7204 12.8107C10.9073 12.9258 8.83233 13.9029 8.90946 15.9032C9.03403 19.1356 12.6587 19.5692 14.4456 16.5118C15.7876 14.2155 13.2554 11.4114 11.7061 13.0962C11.7061 13.0962 12.269 12.7331 11.7204 12.8107Z" fill="white"/>
<path d="M23.3515 19.365C24.607 19.2191 25.8815 19.0412 27.137 18.9613C28.641 18.8658 30.1002 18.8886 31.6044 18.7972C32.5545 18.7393 33.5198 18.6464 34.4724 18.5263C34.4852 18.5247 35.6558 18.3386 35.4324 18.3646" stroke="black" stroke-width="0.3" stroke-miterlimit="1.5" stroke-linecap="round" stroke-linejoin="round"/>
<path d="M0.392426 20.2933C1.65642 20.2933 2.94293 20.2637 4.19925 20.3293C5.70421 20.408 7.15097 20.5991 8.65569 20.6819C9.60614 20.7341 10.5757 20.7532 11.5358 20.7439C11.5487 20.7438 12.7329 20.6941 12.508 20.6941" stroke="black" stroke-width="0.3" stroke-miterlimit="1.5" stroke-linecap="round" stroke-linejoin="round"/>
<path d="M0.424063 22.4555C1.68155 22.3274 2.95842 22.1675 4.21493 22.1055C5.72012 22.0312 7.17879 22.0747 8.68415 22.0045C9.635 21.9601 10.6015 21.8808 11.5557 21.7743C11.5685 21.7728 12.7416 21.6034 12.5179 21.6262" stroke="black" stroke-width="0.3" stroke-miterlimit="1.5" stroke-linecap="round" stroke-linejoin="round"/>
<path d="M0.524001 17.8331C1.77795 17.9922 3.05796 18.1247 4.29604 18.348C5.77912 18.6155 7.19033 18.9872 8.67266 19.2587C9.60899 19.4301 10.5685 19.5711 11.5221 19.6827C11.5349 19.6842 12.716 19.784 12.4928 19.7556" stroke="black" stroke-width="0.3" stroke-miterlimit="1.5" stroke-linecap="round" stroke-linejoin="round"/>
<path d="M23.5248 20.3098C24.7888 20.3098 26.0753 20.2802 27.3316 20.3458C28.8366 20.4245 30.2833 20.6156 31.7881 20.6984C32.7385 20.7506 33.7081 20.7697 34.6681 20.7604C34.6811 20.7602 35.8653 20.7106 35.6404 20.7106" stroke="black" stroke-width="0.3" stroke-miterlimit="1.5" stroke-linecap="round" stroke-linejoin="round"/>
<path d="M23.5152 21.392C24.769 21.5527 26.0488 21.6869 27.2866 21.9118C28.7693 22.1813 30.18 22.5548 31.662 22.8282C32.5981 23.0009 33.5574 23.1431 34.5108 23.256C34.5237 23.2575 35.7046 23.3588 35.4815 23.3302" stroke="black" stroke-width="0.3" stroke-miterlimit="1.5" stroke-linecap="round" stroke-linejoin="round"/>
<path fill-rule="evenodd" clip-rule="evenodd" d="M4.58434 33.6353C4.58434 33.6353 8.11822 33.3382 9.93995 34.1664C11.5635 34.9043 12.7407 38.9843 12.7407 38.9843C12.7407 38.9843 8.49864 39.7196 6.64726 38.1921C4.35717 36.3026 4.58434 33.6353 4.58434 33.6353Z" fill="#808080"/>
<path fill-rule="evenodd" clip-rule="evenodd" d="M32.8552 33.1541C32.8552 33.1541 29.3213 32.8571 27.4995 33.6852C25.876 34.4231 24.7702 38.7041 24.7702 38.7041C24.7702 38.7041 28.9409 39.2385 30.7922 37.711C33.0823 35.8215 32.8552 33.1541 32.8552 33.1541Z" fill="#808080"/>
<path d="M12.3828 17.0004C12.9934 17.0004 13.4884 16.5054 13.4884 15.8948C13.4884 15.2843 12.9934 14.7893 12.3828 14.7893C11.7722 14.7893 11.2773 15.2843 11.2773 15.8948C11.2773 16.5054 11.7722 17.0004 12.3828 17.0004Z" fill="black"/>
<path d="M24.8386 17.003C25.4498 17.003 25.9453 16.5075 25.9453 15.8963C25.9453 15.2851 25.4498 14.7896 24.8386 14.7896C24.2274 14.7896 23.7319 15.2851 23.7319 15.8963C23.7319 16.5075 24.2274 17.003 24.8386 17.003Z" fill="black"/>
</svg>
